<svg width="400" height="111" viewBox="0 0 400 111" fill="none" xmlns="http://www.w3.org/2000/svg">
<rect width="400" height="111" rx="8" fill="#EDE8E8"/>
<path d="M21.85 23.364C23.182 23.364 24.346 23.628 25.342 24.156C26.338 24.684 27.106 25.428 27.646 26.388C28.198 27.336 28.474 28.434 28.474 29.682C28.474 30.918 28.198 32.016 27.646 32.976C27.106 33.936 26.332 34.68 25.324 35.208C24.328 35.736 23.17 36 21.85 36H17.116V23.364H21.85ZM21.652 33.336C22.816 33.336 23.722 33.018 24.37 32.382C25.018 31.746 25.342 30.846 25.342 29.682C25.342 28.518 25.018 27.612 24.37 26.964C23.722 26.316 22.816 25.992 21.652 25.992H20.194V33.336H21.652ZM33.2721 23.364V36H30.1941V23.364H33.2721ZM43.7287 23.364V25.83H38.5807V28.494H42.4327V30.888H38.5807V36H35.5027V23.364H43.7287ZM53.5725 23.364V25.83H48.4245V28.494H52.2765V30.888H48.4245V36H45.3465V23.364H53.5725ZM58.2682 23.364V36H55.1902V23.364H58.2682ZM59.9768 29.664C59.9768 28.416 60.2468 27.306 60.7868 26.334C61.3268 25.35 62.0768 24.588 63.0368 24.048C64.0088 23.496 65.1068 23.22 66.3308 23.22C67.8308 23.22 69.1148 23.616 70.1828 24.408C71.2508 25.2 71.9648 26.28 72.3248 27.648H68.9408C68.6888 27.12 68.3288 26.718 67.8608 26.442C67.4048 26.166 66.8828 26.028 66.2948 26.028C65.3468 26.028 64.5788 26.358 63.9908 27.018C63.4028 27.678 63.1088 28.56 63.1088 29.664C63.1088 30.768 63.4028 31.65 63.9908 32.31C64.5788 32.97 65.3468 33.3 66.2948 33.3C66.8828 33.3 67.4048 33.162 67.8608 32.886C68.3288 32.61 68.6888 32.208 68.9408 31.68H72.3248C71.9648 33.048 71.2508 34.128 70.1828 34.92C69.1148 35.7 67.8308 36.09 66.3308 36.09C65.1068 36.09 64.0088 35.82 63.0368 35.28C62.0768 34.728 61.3268 33.966 60.7868 32.994C60.2468 32.022 59.9768 30.912 59.9768 29.664ZM77.2338 23.364V30.924C77.2338 31.68 77.4198 32.262 77.7918 32.67C78.1638 33.078 78.7098 33.282 79.4298 33.282C80.1498 33.282 80.7018 33.078 81.0858 32.67C81.4698 32.262 81.6618 31.68 81.6618 30.924V23.364H84.7398V30.906C84.7398 32.034 84.4998 32.988 84.0198 33.768C83.5398 34.548 82.8918 35.136 82.0758 35.532C81.2718 35.928 80.3718 36.126 79.3758 36.126C78.3798 36.126 77.4858 35.934 76.6938 35.55C75.9138 35.154 75.2958 34.566 74.8398 33.786C74.3838 32.994 74.1558 32.034 74.1558 30.906V23.364H77.2338ZM89.9792 33.624H94.0112V36H86.9012V23.364H89.9792V33.624ZM104.569 23.364V25.83H101.221V36H98.1433V25.83H94.7953V23.364H104.569ZM116.95 23.364L112.576 31.824V36H109.498V31.824L105.124 23.364H108.616L111.064 28.656L113.494 23.364H116.95ZM125.083 33.624H129.115V36H122.005V23.364H125.083V33.624ZM133.661 25.83V28.386H137.783V30.762H133.661V33.534H138.323V36H130.583V23.364H138.323V25.83H133.661ZM152.183 23.364L147.701 36H143.849L139.367 23.364H142.643L145.775 32.904L148.925 23.364H152.183ZM156.548 25.83V28.386H160.67V30.762H156.548V33.534H161.21V36H153.47V23.364H161.21V25.83H156.548ZM166.286 33.624H170.318V36H163.208V23.364H166.286V33.624Z" fill="#555555"/>
<path d="M21.5611 99.1918C20.5511 99.1918 19.6818 98.9872 18.9531 98.5781C18.2287 98.1648 17.6705 97.581 17.2784 96.8267C16.8864 96.0682 16.6903 95.1712 16.6903 94.1357C16.6903 93.1257 16.8864 92.2393 17.2784 91.4766C17.6705 90.7138 18.2223 90.1193 18.9339 89.6932C19.6499 89.267 20.4893 89.054 21.4524 89.054C22.1001 89.054 22.7031 89.1584 23.2614 89.3672C23.8239 89.5717 24.3139 89.8807 24.7315 90.294C25.1534 90.7074 25.4815 91.2273 25.7159 91.8537C25.9503 92.4759 26.0675 93.2045 26.0675 94.0398V94.7876H17.777V93.1001H23.5043C23.5043 92.7081 23.419 92.3608 23.2486 92.0582C23.0781 91.7557 22.8416 91.5192 22.5391 91.3487C22.2408 91.174 21.8935 91.0866 21.4972 91.0866C21.0838 91.0866 20.7173 91.1825 20.3977 91.3743C20.0824 91.5618 19.8352 91.8153 19.6562 92.1349C19.4773 92.4503 19.3857 92.8018 19.3814 93.1896V94.794C19.3814 95.2798 19.4709 95.6996 19.6499 96.0533C19.8331 96.407 20.0909 96.6797 20.4233 96.8714C20.7557 97.0632 21.1499 97.1591 21.6058 97.1591C21.9084 97.1591 22.1854 97.1165 22.4368 97.0312C22.6882 96.946 22.9034 96.8182 23.0824 96.6477C23.2614 96.4773 23.3977 96.2685 23.4915 96.0213L26.0099 96.1875C25.8821 96.7926 25.62 97.321 25.2237 97.7727C24.8317 98.2202 24.3246 98.5696 23.7024 98.821C23.0845 99.0682 22.3707 99.1918 21.5611 99.1918ZM30.6442 99.1854C30.0178 99.1854 29.4595 99.0767 28.9695 98.8594C28.4794 98.6378 28.0916 98.3118 27.8061 97.8814C27.5249 97.4467 27.3842 96.9055 27.3842 96.2578C27.3842 95.7124 27.4844 95.2543 27.6847 94.8835C27.8849 94.5128 28.1577 94.2145 28.5028 93.9886C28.848 93.7628 29.2401 93.5923 29.679 93.4773C30.1222 93.3622 30.5866 93.2812 31.0724 93.2344C31.6435 93.1747 32.1037 93.1193 32.4531 93.0682C32.8026 93.0128 33.0561 92.9318 33.2138 92.8253C33.3714 92.7187 33.4503 92.5611 33.4503 92.3523V92.3139C33.4503 91.9091 33.3224 91.5959 33.0668 91.3743C32.8153 91.1527 32.4574 91.0419 31.9929 91.0419C31.5028 91.0419 31.1129 91.1506 30.8232 91.3679C30.5334 91.581 30.3416 91.8494 30.2479 92.1733L27.7294 91.9688C27.8572 91.3722 28.1087 90.8565 28.4837 90.4219C28.8587 89.983 29.3423 89.6463 29.9347 89.4119C30.5313 89.1733 31.2216 89.054 32.0057 89.054C32.5511 89.054 33.0732 89.1179 33.5717 89.2457C34.0746 89.3736 34.5199 89.5717 34.9077 89.8402C35.2997 90.1087 35.6087 90.4538 35.8345 90.8757C36.0604 91.2933 36.1733 91.794 36.1733 92.3778V99H33.5909V97.6385H33.5142C33.3565 97.9453 33.1456 98.2159 32.8814 98.4503C32.6172 98.6804 32.2997 98.8615 31.929 98.9936C31.5582 99.1214 31.13 99.1854 30.6442 99.1854ZM31.424 97.3061C31.8246 97.3061 32.1783 97.2273 32.4851 97.0696C32.7919 96.9077 33.0327 96.6903 33.2074 96.4176C33.3821 96.1449 33.4695 95.8359 33.4695 95.4908V94.4489C33.3842 94.5043 33.267 94.5554 33.1179 94.6023C32.973 94.6449 32.8089 94.6854 32.6257 94.7237C32.4425 94.7578 32.2592 94.7898 32.076 94.8196C31.8928 94.8452 31.7266 94.8686 31.5774 94.8899C31.2578 94.9368 30.9787 95.0114 30.7401 95.1136C30.5014 95.2159 30.3161 95.3544 30.1839 95.5291C30.0518 95.6996 29.9858 95.9126 29.9858 96.1683C29.9858 96.5391 30.12 96.8224 30.3885 97.0185C30.6612 97.2102 31.0064 97.3061 31.424 97.3061ZM46.4549 91.9815L43.962 92.1349C43.9194 91.9219 43.8278 91.7301 43.6871 91.5597C43.5465 91.3849 43.3612 91.2464 43.131 91.1442C42.9052 91.0376 42.6346 90.9844 42.3192 90.9844C41.8974 90.9844 41.5415 91.0739 41.2518 91.2528C40.962 91.4276 40.8171 91.6619 40.8171 91.956C40.8171 92.1903 40.9109 92.3885 41.0984 92.5504C41.2859 92.7124 41.6076 92.8423 42.0636 92.9403L43.8406 93.2983C44.7951 93.4943 45.5067 93.8097 45.9755 94.2443C46.4442 94.679 46.6786 95.25 46.6786 95.9574C46.6786 96.6009 46.489 97.1655 46.1097 97.6513C45.7347 98.1371 45.2191 98.5163 44.5629 98.7891C43.9109 99.0575 43.1587 99.1918 42.3065 99.1918C41.0067 99.1918 39.9712 98.9212 39.1999 98.38C38.4329 97.8345 37.9833 97.093 37.8512 96.1555L40.5295 96.0149C40.6104 96.4112 40.8065 96.7138 41.1175 96.9226C41.4286 97.1271 41.8271 97.2294 42.3129 97.2294C42.7901 97.2294 43.1737 97.1378 43.4634 96.9545C43.7575 96.767 43.9066 96.5263 43.9109 96.2322C43.9066 95.9851 43.8022 95.7827 43.5977 95.625C43.3931 95.4631 43.0778 95.3395 42.6516 95.2543L40.9513 94.9155C39.9925 94.7237 39.2788 94.3913 38.81 93.9183C38.3455 93.4453 38.1133 92.8423 38.1133 92.1094C38.1133 91.4787 38.2837 90.9354 38.6246 90.4794C38.9698 90.0234 39.4535 89.6719 40.0756 89.4247C40.7021 89.1776 41.435 89.054 42.2745 89.054C43.5146 89.054 44.4904 89.3161 45.2021 89.8402C45.918 90.3643 46.3356 91.0781 46.4549 91.9815ZM50.0744 102.682C49.7292 102.682 49.4054 102.654 49.1028 102.599C48.8045 102.548 48.5574 102.482 48.3613 102.401L48.975 100.368C49.2946 100.466 49.5822 100.519 49.8379 100.528C50.0978 100.536 50.3216 100.477 50.5091 100.349C50.7008 100.221 50.8564 100.004 50.9757 99.6967L51.1355 99.2812L47.6135 89.1818H50.4771L52.5098 96.392H52.612L54.6639 89.1818H57.5467L53.7306 100.061C53.5474 100.589 53.2981 101.05 52.9828 101.442C52.6717 101.838 52.2775 102.143 51.8002 102.356C51.323 102.573 50.7477 102.682 50.0744 102.682Z" fill="#A85151"/>
<rect x="16" y="50" width="366" height="15" rx="7.5" fill="#D9D9D9"/>
<path d="M24 58H122" stroke="#FF7033" stroke-opacity="0.8" stroke-width="10" stroke-linecap="round"/>
</svg>
