<svg width="400" height="151" viewBox="0 0 400 151" fill="none" xmlns="http://www.w3.org/2000/svg">
<rect width="400" height="151" rx="8" fill="#EDE8E8"/>
<path d="M20.194 23.364V36H17.116V23.364H20.194ZM33.7286 36H30.6506L25.5026 28.206V36H22.4246V23.364H25.5026L30.6506 31.194V23.364H33.7286V36ZM44.3477 27.36C44.1198 26.94 43.7898 26.622 43.3578 26.406C42.9378 26.178 42.4398 26.064 41.8638 26.064C40.8678 26.064 40.0698 26.394 39.4697 27.054C38.8698 27.702 38.5698 28.572 38.5698 29.664C38.5698 30.828 38.8818 31.74 39.5058 32.4C40.1418 33.048 41.0118 33.372 42.1158 33.372C42.8718 33.372 43.5078 33.18 44.0238 32.796C44.5518 32.412 44.9358 31.86 45.1758 31.14H41.2698V28.872H47.9658V31.734C47.7378 32.502 47.3478 33.216 46.7958 33.876C46.2558 34.536 45.5658 35.07 44.7258 35.478C43.8858 35.886 42.9378 36.09 41.8818 36.09C40.6338 36.09 39.5178 35.82 38.5338 35.28C37.5618 34.728 36.7998 33.966 36.2478 32.994C35.7078 32.022 35.4377 30.912 35.4377 29.664C35.4377 28.416 35.7078 27.306 36.2478 26.334C36.7998 25.35 37.5618 24.588 38.5338 24.048C39.5058 23.496 40.6158 23.22 41.8638 23.22C43.3758 23.22 44.6478 23.586 45.6798 24.318C46.7238 25.05 47.4138 26.064 47.7498 27.36H44.3477ZM56.1147 36L53.4867 31.23H52.7487V36H49.6707V23.364H54.8367C55.8327 23.364 56.6787 23.538 57.3747 23.886C58.0827 24.234 58.6107 24.714 58.9587 25.326C59.3067 25.926 59.4807 26.598 59.4807 27.342C59.4807 28.182 59.2407 28.932 58.7607 29.592C58.2927 30.252 57.5967 30.72 56.6727 30.996L59.5887 36H56.1147ZM52.7487 29.052H54.6567C55.2207 29.052 55.6407 28.914 55.9167 28.638C56.2047 28.362 56.3487 27.972 56.3487 27.468C56.3487 26.988 56.2047 26.61 55.9167 26.334C55.6407 26.058 55.2207 25.92 54.6567 25.92H52.7487V29.052ZM64.4909 25.83V28.386H68.6129V30.762H64.4909V33.534H69.1529V36H61.4129V23.364H69.1529V25.83H64.4909ZM75.8852 23.364C77.2172 23.364 78.3812 23.628 79.3772 24.156C80.3732 24.684 81.1412 25.428 81.6812 26.388C82.2332 27.336 82.5092 28.434 82.5092 29.682C82.5092 30.918 82.2332 32.016 81.6812 32.976C81.1412 33.936 80.3672 34.68 79.3592 35.208C78.3632 35.736 77.2052 36 75.8852 36H71.1512V23.364H75.8852ZM75.6872 33.336C76.8512 33.336 77.7572 33.018 78.4052 32.382C79.0532 31.746 79.3772 30.846 79.3772 29.682C79.3772 28.518 79.0532 27.612 78.4052 26.964C77.7572 26.316 76.8512 25.992 75.6872 25.992H74.2292V33.336H75.6872ZM87.3073 23.364V36H84.2293V23.364H87.3073ZM92.6159 25.83V28.386H96.7379V30.762H92.6159V33.534H97.2779V36H89.5379V23.364H97.2779V25.83H92.6159ZM110.58 36H107.502L102.354 28.206V36H99.2762V23.364H102.354L107.502 31.194V23.364H110.58V36ZM121.901 23.364V25.83H118.553V36H115.475V25.83H112.127V23.364H121.901ZM128.018 36.126C127.094 36.126 126.266 35.976 125.534 35.676C124.802 35.376 124.214 34.932 123.77 34.344C123.338 33.756 123.11 33.048 123.086 32.22H126.362C126.41 32.688 126.572 33.048 126.848 33.3C127.124 33.54 127.484 33.66 127.928 33.66C128.384 33.66 128.744 33.558 129.008 33.354C129.272 33.138 129.404 32.844 129.404 32.472C129.404 32.16 129.296 31.902 129.08 31.698C128.876 31.494 128.618 31.326 128.306 31.194C128.006 31.062 127.574 30.912 127.01 30.744C126.194 30.492 125.528 30.24 125.012 29.988C124.496 29.736 124.052 29.364 123.68 28.872C123.308 28.38 123.122 27.738 123.122 26.946C123.122 25.77 123.548 24.852 124.4 24.192C125.252 23.52 126.362 23.184 127.73 23.184C129.122 23.184 130.244 23.52 131.096 24.192C131.948 24.852 132.404 25.776 132.464 26.964H129.134C129.11 26.556 128.96 26.238 128.684 26.01C128.408 25.77 128.054 25.65 127.622 25.65C127.25 25.65 126.95 25.752 126.722 25.956C126.494 26.148 126.38 26.43 126.38 26.802C126.38 27.21 126.572 27.528 126.956 27.756C127.34 27.984 127.94 28.23 128.756 28.494C129.572 28.77 130.232 29.034 130.736 29.286C131.252 29.538 131.696 29.904 132.068 30.384C132.44 30.864 132.626 31.482 132.626 32.238C132.626 32.958 132.44 33.612 132.068 34.2C131.708 34.788 131.18 35.256 130.484 35.604C129.788 35.952 128.966 36.126 128.018 36.126Z" fill="#555555"/>
<path d="M17 70H200" stroke="#FF7033" stroke-opacity="0.8" stroke-width="10" stroke-linecap="round"/>
<path d="M17 90H365" stroke="#FF7033" stroke-opacity="0.8" stroke-width="10" stroke-linecap="round"/>
<path d="M16 110H314" stroke="#FF7033" stroke-opacity="0.8" stroke-width="10" stroke-linecap="round"/>
<path d="M16 130H345" stroke="#FF7033" stroke-opacity="0.8" stroke-width="10" stroke-linecap="round"/>
</svg>
