<svg width="400" height="151" viewBox="0 0 400 151" fill="none" xmlns="http://www.w3.org/2000/svg">
<rect width="400" height="151" rx="8" fill="#EDE8E8"/>
<path d="M26.746 27.432C26.746 28.164 26.578 28.836 26.242 29.448C25.906 30.048 25.39 30.534 24.694 30.906C23.998 31.278 23.134 31.464 22.102 31.464H20.194V36H17.116V23.364H22.102C23.11 23.364 23.962 23.538 24.658 23.886C25.354 24.234 25.876 24.714 26.224 25.326C26.572 25.938 26.746 26.64 26.746 27.432ZM21.868 29.016C22.456 29.016 22.894 28.878 23.182 28.602C23.47 28.326 23.614 27.936 23.614 27.432C23.614 26.928 23.47 26.538 23.182 26.262C22.894 25.986 22.456 25.848 21.868 25.848H20.194V29.016H21.868ZM34.7924 36L32.1644 31.23H31.4264V36H28.3484V23.364H33.5144C34.5104 23.364 35.3564 23.538 36.0524 23.886C36.7604 24.234 37.2884 24.714 37.6364 25.326C37.9844 25.926 38.1584 26.598 38.1584 27.342C38.1584 28.182 37.9184 28.932 37.4384 29.592C36.9704 30.252 36.2744 30.72 35.3504 30.996L38.2664 36H34.7924ZM31.4264 29.052H33.3344C33.8984 29.052 34.3184 28.914 34.5944 28.638C34.8824 28.362 35.0264 27.972 35.0264 27.468C35.0264 26.988 34.8824 26.61 34.5944 26.334C34.3184 26.058 33.8984 25.92 33.3344 25.92H31.4264V29.052ZM43.1686 25.83V28.386H47.2906V30.762H43.1686V33.534H47.8306V36H40.0906V23.364H47.8306V25.83H43.1686ZM59.4589 27.432C59.4589 28.164 59.2909 28.836 58.9549 29.448C58.6189 30.048 58.1029 30.534 57.4069 30.906C56.7109 31.278 55.8469 31.464 54.8149 31.464H52.9069V36H49.8289V23.364H54.8149C55.8229 23.364 56.6749 23.538 57.3709 23.886C58.0669 24.234 58.5889 24.714 58.9369 25.326C59.2849 25.938 59.4589 26.64 59.4589 27.432ZM54.5809 29.016C55.1689 29.016 55.6069 28.878 55.8949 28.602C56.1829 28.326 56.3269 27.936 56.3269 27.432C56.3269 26.928 56.1829 26.538 55.8949 26.262C55.6069 25.986 55.1689 25.848 54.5809 25.848H52.9069V29.016H54.5809ZM68.9273 33.768H64.2113L63.4553 36H60.2333L64.8053 23.364H68.3693L72.9413 36H69.6833L68.9273 33.768ZM68.1353 31.392L66.5693 26.766L65.0213 31.392H68.1353ZM80.7768 36L78.1488 31.23H77.4108V36H74.3328V23.364H79.4988C80.4948 23.364 81.3408 23.538 82.0368 23.886C82.7448 24.234 83.2728 24.714 83.6208 25.326C83.9688 25.926 84.1428 26.598 84.1428 27.342C84.1428 28.182 83.9028 28.932 83.4228 29.592C82.9548 30.252 82.2588 30.72 81.3348 30.996L84.2508 36H80.7768ZM77.4108 29.052H79.3188C79.8828 29.052 80.3028 28.914 80.5788 28.638C80.8668 28.362 81.0108 27.972 81.0108 27.468C81.0108 26.988 80.8668 26.61 80.5788 26.334C80.3028 26.058 79.8828 25.92 79.3188 25.92H77.4108V29.052ZM93.941 33.768H89.225L88.469 36H85.247L89.819 23.364H93.383L97.955 36H94.697L93.941 33.768ZM93.149 31.392L91.583 26.766L90.035 31.392H93.149ZM108.436 23.364V25.83H105.088V36H102.01V25.83H98.6625V23.364H108.436ZM113.059 23.364V36H109.981V23.364H113.059ZM121.266 36.126C120.078 36.126 118.986 35.85 117.99 35.298C117.006 34.746 116.22 33.978 115.632 32.994C115.056 31.998 114.768 30.882 114.768 29.646C114.768 28.41 115.056 27.3 115.632 26.316C116.22 25.332 117.006 24.564 117.99 24.012C118.986 23.46 120.078 23.184 121.266 23.184C122.454 23.184 123.54 23.46 124.524 24.012C125.52 24.564 126.3 25.332 126.864 26.316C127.44 27.3 127.728 28.41 127.728 29.646C127.728 30.882 127.44 31.998 126.864 32.994C126.288 33.978 125.508 34.746 124.524 35.298C123.54 35.85 122.454 36.126 121.266 36.126ZM121.266 33.318C122.274 33.318 123.078 32.982 123.678 32.31C124.29 31.638 124.596 30.75 124.596 29.646C124.596 28.53 124.29 27.642 123.678 26.982C123.078 26.31 122.274 25.974 121.266 25.974C120.246 25.974 119.43 26.304 118.818 26.964C118.218 27.624 117.918 28.518 117.918 29.646C117.918 30.762 118.218 31.656 118.818 32.328C119.43 32.988 120.246 33.318 121.266 33.318ZM140.744 36H137.666L132.518 28.206V36H129.44V23.364H132.518L137.666 31.194V23.364H140.744V36ZM161.1 23.364V36H158.022V28.422L155.196 36H152.712L149.868 28.404V36H146.79V23.364H150.426L153.972 32.112L157.482 23.364H161.1ZM166.391 25.83V28.386H170.513V30.762H166.391V33.534H171.053V36H163.313V23.364H171.053V25.83H166.391ZM182.142 23.364V25.83H178.794V36H175.716V25.83H172.368V23.364H182.142ZM194.63 23.364V36H191.552V30.798H186.764V36H183.686V23.364H186.764V28.314H191.552V23.364H194.63ZM202.828 36.126C201.64 36.126 200.548 35.85 199.552 35.298C198.568 34.746 197.782 33.978 197.194 32.994C196.618 31.998 196.33 30.882 196.33 29.646C196.33 28.41 196.618 27.3 197.194 26.316C197.782 25.332 198.568 24.564 199.552 24.012C200.548 23.46 201.64 23.184 202.828 23.184C204.016 23.184 205.102 23.46 206.086 24.012C207.082 24.564 207.862 25.332 208.426 26.316C209.002 27.3 209.29 28.41 209.29 29.646C209.29 30.882 209.002 31.998 208.426 32.994C207.85 33.978 207.07 34.746 206.086 35.298C205.102 35.85 204.016 36.126 202.828 36.126ZM202.828 33.318C203.836 33.318 204.64 32.982 205.24 32.31C205.852 31.638 206.158 30.75 206.158 29.646C206.158 28.53 205.852 27.642 205.24 26.982C204.64 26.31 203.836 25.974 202.828 25.974C201.808 25.974 200.992 26.304 200.38 26.964C199.78 27.624 199.48 28.518 199.48 29.646C199.48 30.762 199.78 31.656 200.38 32.328C200.992 32.988 201.808 33.318 202.828 33.318ZM215.737 23.364C217.069 23.364 218.233 23.628 219.229 24.156C220.225 24.684 220.993 25.428 221.533 26.388C222.085 27.336 222.361 28.434 222.361 29.682C222.361 30.918 222.085 32.016 221.533 32.976C220.993 33.936 220.219 34.68 219.211 35.208C218.215 35.736 217.057 36 215.737 36H211.003V23.364H215.737ZM215.539 33.336C216.703 33.336 217.609 33.018 218.257 32.382C218.905 31.746 219.229 30.846 219.229 29.682C219.229 28.518 218.905 27.612 218.257 26.964C217.609 26.316 216.703 25.992 215.539 25.992H214.081V33.336H215.539Z" fill="#555555"/>
<path d="M17 70H365" stroke="#FF7033" stroke-opacity="0.8" stroke-width="10" stroke-linecap="round"/>
<path d="M17 90H365" stroke="#FF7033" stroke-opacity="0.8" stroke-width="10" stroke-linecap="round"/>
<path d="M16 110H368" stroke="#FF7033" stroke-opacity="0.8" stroke-width="10" stroke-linecap="round"/>
<path d="M16 130H345" stroke="#FF7033" stroke-opacity="0.8" stroke-width="10" stroke-linecap="round"/>
</svg>
