<?xml version="1.0" standalone="no"?><svg xmlns="http://www.w3.org/2000/svg" viewBox="0 0 1440 320"><path fill="#ff7033" fill-opacity="1" d="M0,288L21.8,293.3C43.6,299,87,309,131,309.3C174.5,309,218,299,262,261.3C305.5,224,349,160,393,122.7C436.4,85,480,75,524,101.3C567.3,128,611,192,655,192C698.2,192,742,128,785,117.3C829.1,107,873,149,916,192C960,235,1004,277,1047,256C1090.9,235,1135,149,1178,128C1221.8,107,1265,149,1309,165.3C1352.7,181,1396,171,1418,165.3L1440,160L1440,320L1418.2,320C1396.4,320,1353,320,1309,320C1265.5,320,1222,320,1178,320C1134.5,320,1091,320,1047,320C1003.6,320,960,320,916,320C872.7,320,829,320,785,320C741.8,320,698,320,655,320C610.9,320,567,320,524,320C480,320,436,320,393,320C349.1,320,305,320,262,320C218.2,320,175,320,131,320C87.3,320,44,320,22,320L0,320Z"></path></svg>