<svg width="179" height="65" viewBox="0 0 179 65" fill="none" xmlns="http://www.w3.org/2000/svg">
<path d="M88.56 41L85.932 36.23H85.194V41H82.116V28.364H87.282C88.278 28.364 89.124 28.538 89.82 28.886C90.528 29.234 91.056 29.714 91.404 30.326C91.752 30.926 91.926 31.598 91.926 32.342C91.926 33.182 91.686 33.932 91.206 34.592C90.738 35.252 90.042 35.72 89.118 35.996L92.034 41H88.56ZM85.194 34.052H87.102C87.666 34.052 88.086 33.914 88.362 33.638C88.65 33.362 88.794 32.972 88.794 32.468C88.794 31.988 88.65 31.61 88.362 31.334C88.086 31.058 87.666 30.92 87.102 30.92H85.194V34.052ZM96.9362 30.83V33.386H101.058V35.762H96.9362V38.534H101.598V41H93.8582V28.364H101.598V30.83H96.9362ZM103.074 34.664C103.074 33.416 103.344 32.306 103.884 31.334C104.424 30.35 105.174 29.588 106.134 29.048C107.106 28.496 108.204 28.22 109.428 28.22C110.928 28.22 112.212 28.616 113.28 29.408C114.348 30.2 115.062 31.28 115.422 32.648H112.038C111.786 32.12 111.426 31.718 110.958 31.442C110.502 31.166 109.98 31.028 109.392 31.028C108.444 31.028 107.676 31.358 107.088 32.018C106.5 32.678 106.206 33.56 106.206 34.664C106.206 35.768 106.5 36.65 107.088 37.31C107.676 37.97 108.444 38.3 109.392 38.3C109.98 38.3 110.502 38.162 110.958 37.886C111.426 37.61 111.786 37.208 112.038 36.68H115.422C115.062 38.048 114.348 39.128 113.28 39.92C112.212 40.7 110.928 41.09 109.428 41.09C108.204 41.09 107.106 40.82 106.134 40.28C105.174 39.728 104.424 38.966 103.884 37.994C103.344 37.022 103.074 35.912 103.074 34.664ZM120.385 28.364V41H117.307V28.364H120.385ZM132.246 32.432C132.246 33.164 132.078 33.836 131.742 34.448C131.406 35.048 130.89 35.534 130.194 35.906C129.498 36.278 128.634 36.464 127.602 36.464H125.694V41H122.616V28.364H127.602C128.61 28.364 129.462 28.538 130.158 28.886C130.854 29.234 131.376 29.714 131.724 30.326C132.072 30.938 132.246 31.64 132.246 32.432ZM127.368 34.016C127.956 34.016 128.394 33.878 128.682 33.602C128.97 33.326 129.114 32.936 129.114 32.432C129.114 31.928 128.97 31.538 128.682 31.262C128.394 30.986 127.956 30.848 127.368 30.848H125.694V34.016H127.368ZM136.926 30.83V33.386H141.048V35.762H136.926V38.534H141.588V41H133.848V28.364H141.588V30.83H136.926ZM149.563 41.126C148.375 41.126 147.283 40.85 146.287 40.298C145.303 39.746 144.517 38.978 143.929 37.994C143.353 36.998 143.065 35.882 143.065 34.646C143.065 33.41 143.353 32.3 143.929 31.316C144.517 30.332 145.303 29.564 146.287 29.012C147.283 28.46 148.375 28.184 149.563 28.184C150.751 28.184 151.837 28.46 152.821 29.012C153.817 29.564 154.597 30.332 155.161 31.316C155.737 32.3 156.025 33.41 156.025 34.646C156.025 35.882 155.737 36.998 155.161 37.994C154.585 38.978 153.805 39.746 152.821 40.298C151.837 40.85 150.751 41.126 149.563 41.126ZM149.563 38.318C150.571 38.318 151.375 37.982 151.975 37.31C152.587 36.638 152.893 35.75 152.893 34.646C152.893 33.53 152.587 32.642 151.975 31.982C151.375 31.31 150.571 30.974 149.563 30.974C148.543 30.974 147.727 31.304 147.115 31.964C146.515 32.624 146.215 33.518 146.215 34.646C146.215 35.762 146.515 36.656 147.115 37.328C147.727 37.988 148.543 38.318 149.563 38.318ZM160.815 38.624H164.847V41H157.737V28.364H160.815V38.624ZM174.181 38.768H169.465L168.709 41H165.487L170.059 28.364H173.623L178.195 41H174.937L174.181 38.768ZM173.389 36.392L171.823 31.766L170.275 36.392H173.389Z" fill="#FF7033" fill-opacity="0.8"/>
<path d="M8.12502 22.3803V22.3438C8.12497 18.7325 9.19451 15.202 11.1987 12.1979C13.2029 9.19373 16.052 6.85048 19.3864 5.46377C22.7209 4.07705 26.3914 3.70899 29.9348 4.40602C33.4782 5.10306 36.7358 6.83395 39.2966 9.38034C41.3114 8.38589 43.5619 7.96777 45.7995 8.17218C48.037 8.37659 50.1745 9.19558 51.9758 10.5387C53.7771 11.8817 55.172 13.6966 56.0065 15.7828C56.841 17.8689 57.0825 20.1452 56.7044 22.36C57.2603 22.4116 57.7996 22.5772 58.2886 22.8465C58.7777 23.1158 59.2059 23.483 59.5467 23.9252C59.8875 24.3674 60.1335 24.8751 60.2694 25.4166C60.4052 25.9581 60.428 26.5218 60.3363 27.0725C58.5 38.1185 53.9581 45.11 46.7188 48.0513V50.7813C46.7188 52.3974 46.0768 53.9474 44.934 55.0902C43.7912 56.233 42.2412 56.875 40.625 56.875H24.375C22.7589 56.875 21.2089 56.233 20.0661 55.0902C18.9233 53.9474 18.2813 52.3974 18.2813 50.7813V48.0513C11.0419 45.11 6.50002 38.1185 4.66377 27.0725C4.57515 26.5365 4.59497 25.9881 4.72205 25.4598C4.84913 24.9315 5.08089 24.4341 5.40362 23.997C5.72634 23.5598 6.13347 23.1919 6.60092 22.9149C7.06836 22.6379 7.58662 22.4575 8.12502 22.3844V22.3803ZM12.1875 22.3438H16.25C16.25 19.6502 17.3201 17.0669 19.2247 15.1622C21.1294 13.2576 23.7127 12.1875 26.4063 12.1875C29.0999 12.1875 31.6832 13.2576 33.5878 15.1622C35.4925 17.0669 36.5625 19.6502 36.5625 22.3438H40.625C40.625 18.5727 39.127 14.9561 36.4604 12.2896C33.7939 9.62307 30.1773 8.12503 26.4063 8.12503C22.6352 8.12503 19.0186 9.62307 16.3521 12.2896C13.6856 14.9561 12.1875 18.5727 12.1875 22.3438ZM20.3125 22.3438H32.5C32.5 20.7276 31.858 19.1776 30.7152 18.0348C29.5724 16.892 28.0224 16.25 26.4063 16.25C24.7901 16.25 23.2401 16.892 22.0973 18.0348C20.9545 19.1776 20.3125 20.7276 20.3125 22.3438ZM48.2057 22.3438H52.5566C52.8633 21.1432 52.8919 19.8884 52.6402 18.6751C52.3885 17.4618 51.8632 16.322 51.1042 15.3425C50.3453 14.3629 49.3728 13.5696 48.2608 13.0228C47.1488 12.4761 45.9267 12.1904 44.6875 12.1875C43.7125 12.1875 42.7863 12.3581 41.925 12.671C42.6441 13.8247 43.2372 15.0678 43.6922 16.3719C44.466 16.18 45.2791 16.2195 46.0306 16.4855C46.7821 16.7516 47.4389 17.2324 47.9196 17.8684C48.4003 18.5044 48.6836 19.2676 48.7345 20.0632C48.7853 20.8588 48.6014 21.6518 48.2057 22.3438ZM42.6563 48.75H22.3438V50.7813C22.3438 51.32 22.5578 51.8367 22.9387 52.2176C23.3196 52.5985 23.8363 52.8125 24.375 52.8125H40.625C41.1637 52.8125 41.6804 52.5985 42.0613 52.2176C42.4423 51.8367 42.6563 51.32 42.6563 50.7813V48.75ZM20.9138 44.6875H44.0863C50.5294 42.6157 54.6082 36.7575 56.3307 26.4063H8.6694C10.3919 36.7575 14.4706 42.6157 20.9138 44.6875Z" fill="#FF7033" fill-opacity="0.8"/>
</svg>
